<?xml version="1.0" encoding="UTF-8" standalone="no"?>
<!-- Created with Inkscape (http://www.inkscape.org/) -->

<svg
   xmlns:dc="http://purl.org/dc/elements/1.1/"
   xmlns:cc="http://creativecommons.org/ns#"
   xmlns:rdf="http://www.w3.org/1999/02/22-rdf-syntax-ns#"
   xmlns:svg="http://www.w3.org/2000/svg"
   xmlns="http://www.w3.org/2000/svg"
   xmlns:sodipodi="http://sodipodi.sourceforge.net/DTD/sodipodi-0.dtd"
   xmlns:inkscape="http://www.inkscape.org/namespaces/inkscape"
   id="svg3371"
   version="1.1"
   inkscape:version="0.91 r13725"
   width="225.40509"
   height="153.45468"
   viewBox="0 0 225.40509 153.45468"
   sodipodi:docname="signature.svg">
  <metadata
     id="metadata3377">
    <rdf:RDF>
      <cc:Work
         rdf:about="">
        <dc:format>image/svg+xml</dc:format>
        <dc:type
           rdf:resource="http://purl.org/dc/dcmitype/StillImage" />
        <dc:title></dc:title>
      </cc:Work>
    </rdf:RDF>
  </metadata>
  <defs
     id="defs3375" />
  <sodipodi:namedview
     pagecolor="#ffffff"
     bordercolor="#666666"
     borderopacity="1"
     objecttolerance="10"
     gridtolerance="10"
     guidetolerance="10"
     inkscape:pageopacity="0"
     inkscape:pageshadow="2"
     inkscape:window-width="1437"
     inkscape:window-height="888"
     id="namedview3373"
     showgrid="false"
     fit-margin-top="0"
     fit-margin-left="0"
     fit-margin-right="0"
     fit-margin-bottom="0"
     inkscape:zoom="1.78"
     inkscape:cx="-0.237262"
     inkscape:cy="122.11905"
     inkscape:window-x="419"
     inkscape:window-y="148"
     inkscape:window-maximized="0"
     inkscape:current-layer="svg3371" />
  <path
     style="fill:#000000"
     d="M 109.67969 0.01171875 C 107.82545 0.26419913 106.62279 4.2751313 108.14258 5.7949219 C 108.55123 6.2035669 109.4299 6.4603744 110.09375 6.3652344 C 111.11909 6.2182784 111.30078 5.7398833 111.30078 3.1914062 C 111.30078 0.61542624 111.12434 0.16605787 110.05859 0.013671875 C 109.9298 -0.0047440625 109.8033 -0.0051132752 109.67969 0.01171875 z M 215.59766 6.5605469 C 215.0486 6.6320241 214.54073 7.0970556 214.18555 8.03125 C 212.92507 11.346555 213.81397 14.951719 216.41602 17.078125 C 216.87807 17.455699 217.80909 17.619951 218.48438 17.443359 C 219.50648 17.176077 219.64665 16.810738 219.32227 15.257812 C 219.10795 14.231807 218.78361 12.312188 218.60156 10.992188 C 218.20959 8.1501923 216.80558 6.4032969 215.59766 6.5605469 z M 116.32617 23.675781 C 115.79887 23.665144 115.2403 23.883787 114.73633 24.417969 C 114.16631 25.022151 112.485 27.074545 111 28.980469 C 105.10613 36.544951 92.292433 46.691406 88.632812 46.691406 C 88.032053 46.691406 86.568176 45.746797 85.378906 44.591797 C 84.189646 43.436797 83.069765 42.492188 82.890625 42.492188 C 81.825365 42.492188 77.52966 46.241445 73.25 50.908203 C 70.53485 53.868949 67.90566 56.291016 67.40625 56.291016 C 66.64104 56.291016 66.562513 55.603102 66.908203 51.914062 C 67.358213 47.111769 66.639947 45.617791 64.248047 46.376953 C 61.970447 47.099833 56.370581 54.045207 53.900391 59.210938 C 52.453746 62.236198 51.281112 64.013534 50.951172 63.683594 C 50.047116 62.779544 49.202351 56.834998 49.431641 52.992188 C 49.686179 48.726236 49.145517 46.974512 47.435547 46.527344 C 45.953337 46.139738 44.422424 47.949527 41.207031 53.890625 C 38.950125 58.060725 36 66.283207 36 68.404297 C 36 69.112357 35.807406 69.498812 35.572266 69.263672 C 34.231956 67.923362 36.260531 38.034906 38.042969 32.861328 C 38.518645 31.480662 38.775869 30.00378 38.613281 29.580078 C 38.265245 28.673142 36.378089 28.076104 35.564453 28.615234 C 33.861149 29.74387 32.178183 40.706753 31.453125 55.390625 C 31.046553 63.624505 30.975314 63.953392 27.919922 71.976562 C 23.68877 83.087142 21.141489 86.038716 14.480469 87.541016 C 7.5443417 89.105366 5.342664 81.02686 8.6875 66.28125 C 11.972311 51.800248 19.460175 44.187336 26.390625 48.28125 C 28.385583 49.459698 30 49.012604 30 47.28125 C 30 45.682712 25.874344 43.723498 22.46875 43.705078 C 15.21514 43.665778 8.8079995 50.867685 5.9765625 62.244141 C 1.5431375 80.057221 2.1168118 85.908699 8.6992188 89.974609 C 12.830274 92.526339 21.08247 90.504936 25.544922 85.847656 C 27.027816 84.300036 28.746807 81.607107 29.578125 79.529297 L 31.027344 75.908203 L 32.371094 80.349609 C 33.938306 85.527119 34.450348 86.291016 36.351562 86.291016 C 38.411909 86.291016 38.813456 84.971248 39.173828 76.992188 C 39.5411 68.860367 40.494634 64.736259 43.449219 58.505859 L 45.496094 54.191406 L 45.550781 57.492188 C 45.630659 62.234467 46.640245 65.251575 48.904297 67.515625 C 50.862871 69.474195 51.92127 69.61232 53.810547 68.15625 C 54.201697 67.85479 55.385533 65.53481 56.439453 63 C 58.861103 57.17564 61.990889 52.440416 62.261719 54.191406 C 62.991489 58.909516 64.343061 60.492188 67.644531 60.492188 C 69.632241 60.492187 70.264799 60.071086 73.193359 56.816406 C 75.011689 54.795586 77.625463 51.897572 79.001953 50.375 L 81.505859 47.605469 L 84.269531 48.949219 C 85.789371 49.687609 87.792243 50.291016 88.720703 50.291016 C 92.459093 50.291016 101.16834 44.674222 108.73828 37.382812 L 112.77734 33.494141 L 113.12305 35.142578 C 113.86109 38.674838 115.36289 44.201316 116.83203 48.791016 C 118.06079 52.629786 118.36728 54.793337 118.36328 59.591797 C 118.35706 66.681197 117.2256 70.233653 114.53125 71.626953 C 112.31783 72.771563 110.51115 72.309062 105.68359 69.357422 C 103.58476 68.074172 101.73063 67.161948 101.5625 67.330078 C 101.39438 67.498208 101.77416 68.525231 102.40625 69.613281 C 104.04513 72.434351 109.36636 75.492188 112.63867 75.492188 C 114.89998 75.492187 115.56634 75.156307 117.85547 72.867188 C 121.29114 69.431517 122.07127 66.127509 121.64258 56.818359 C 121.41008 51.769491 120.93708 48.820513 119.82422 45.492188 C 116.90251 36.754033 116.19482 30.106052 117.92578 27.634766 C 119.20948 25.802019 117.90809 23.707694 116.32617 23.675781 z M 148.61719 24.011719 C 147.78671 24.095786 146.80803 25.176903 145.80078 27.191406 C 144.37783 30.037392 144.30098 30.700045 144.33008 40.091797 C 144.34694 45.536797 144.70252 52.017187 145.11914 54.492188 C 145.79534 58.509297 149.32786 70.080913 150.62695 72.533203 C 150.96198 73.165633 150.54882 74.485737 149.36719 76.554688 L 147.60742 79.636719 L 144.6543 79.285156 C 140.81884 78.830896 137.60943 80.344917 132.55664 84.992188 L 128.81445 88.433594 L 126.24414 87.132812 C 124.14421 86.069692 123.20214 85.922156 121.08789 86.322266 C 114.24154 87.617916 108.57178 91.889823 107.37109 96.658203 C 106.97874 98.216333 106.50541 99.492188 106.31836 99.492188 C 105.66345 99.492187 103.19922 96.875388 103.19922 96.179688 C 103.19922 95.793358 102.63925 94.968576 101.95312 94.347656 L 100.70508 93.21875 L 103.15234 92.179688 C 107.60281 90.289567 105.78542 87.337604 100.98047 88.652344 C 97.61247 89.573904 95.071813 91.333113 92.939453 94.220703 C 89.003693 99.550403 84.692125 111.18719 85.484375 114.34375 C 85.725385 115.30403 85.385323 117.05758 84.564453 119.08008 C 83.129943 122.61447 83.20422 122.55049 81.5625 121.67188 C 79.50324 120.56979 78.098118 116.70053 77.080078 109.33008 C 76.537768 105.40382 75.813916 101.85391 75.472656 101.44141 C 75.131386 101.02891 74.139045 100.69141 73.265625 100.69141 C 71.951095 100.69141 71.352646 101.28481 69.791016 104.14062 C 67.322956 108.65408 66.146977 113.02746 65.716797 119.29102 C 65.099037 128.28566 64.694692 130.9537 64.107422 129.9043 C 63.404052 128.64746 61.986607 116.04944 61.529297 106.99219 C 61.329357 103.03219 61.024646 96.957188 60.853516 93.492188 C 60.260026 81.476087 58.371815 75.956916 54.734375 75.603516 C 53.019246 75.436886 52.800781 75.586229 52.800781 76.917969 C 52.800781 77.744409 53.044635 78.570999 53.34375 78.755859 C 55.27875 79.951759 56.344043 88.170433 57.314453 109.39062 L 57.699219 117.79102 L 53.832031 117.59375 C 51.395814 117.46929 48.768324 117.76502 46.732422 118.39258 C 44.954868 118.9405 42.78937 119.60962 41.919922 119.87891 C 40.34188 120.36767 40.342466 120.36278 42.585938 116.98047 C 45.758232 112.19784 47.762485 108.05628 48.765625 104.21484 C 49.538335 101.25582 49.528672 100.68801 48.666016 98.865234 C 48.135106 97.743444 47.024219 96.483196 46.199219 96.066406 C 43.045098 94.472946 36.549183 95.650754 30.898438 98.839844 C 29.093872 99.858274 27.473086 100.69141 27.294922 100.69141 C 27.116752 100.69141 26.714053 100.01641 26.400391 99.191406 C 26.010511 98.165936 25.374064 97.691406 24.388672 97.691406 C 22.386334 97.691406 21.332795 99.070999 22.158203 100.61328 C 23.309699 102.76488 22.843765 104.34986 20.119141 107.53906 C 14.243413 114.41667 13.416051 120.35824 18.414062 119.78516 C 19.918022 119.61271 20.082982 119.37979 19.945312 117.62695 C 19.785287 115.58954 21.442032 111.66763 23.013672 110.36328 C 24.097206 109.46403 24.178948 109.95245 25.509766 125.29102 C 26.01082 131.06602 26.574507 136.46602 26.761719 137.29102 C 26.948931 138.11602 27.333096 141.02198 27.615234 143.74805 C 28.1034 148.46472 29.395423 151.5786 31.470703 153.0332 C 32.426185 153.70292 33.003437 153.58072 33.367188 152.63281 C 33.548496 152.16033 34.171741 151.80982 34.751953 151.85352 C 38.345011 152.12418 51.024046 142.24368 56.400391 134.98438 C 57.885391 132.97928 59.235391 131.33151 59.400391 131.32031 C 59.565391 131.30913 60.148506 132.08816 60.697266 133.05273 C 61.870546 135.11507 64.727472 136.75472 66.388672 136.32031 C 68.560082 135.75247 69.160839 133.69424 69.699219 125.00586 C 70.236109 116.34142 71.000799 111.26481 72.005859 109.69141 C 72.460369 108.97988 72.586316 109.10514 72.603516 110.29102 C 72.651786 113.62891 74.275308 119.34648 75.798828 121.54492 C 77.540248 124.05779 81.260235 126.49219 83.359375 126.49219 C 85.178485 126.49219 87.373789 124.08863 88.261719 121.125 C 88.739739 119.52951 89.577031 118.30195 90.556641 117.76367 C 91.405331 117.29733 92.717696 116.38548 93.472656 115.73828 C 95.284836 114.18474 98.920045 106.24571 99.390625 102.8125 C 99.595715 101.31617 99.916577 100.0918 100.10352 100.0918 C 100.29045 100.0918 101.30131 100.9234 102.34961 101.93945 C 104.7705 104.28587 108.43759 104.9489 109.875 103.30078 C 110.40901 102.68848 110.997 100.59009 111.18945 98.617188 C 111.45828 95.861238 111.8555 94.792316 112.91992 93.947266 C 117.20368 90.546336 123.19119 88.968538 124.99023 90.767578 C 125.54541 91.322758 126 92.289253 126 92.914062 C 126 94.186402 127.67056 95.291016 129.5918 95.291016 C 130.46976 95.291016 131.12588 94.660364 131.7168 93.246094 C 132.64078 91.034684 137.19426 86.240355 140.09961 84.421875 C 142.26921 83.063915 144.7811 82.962756 145.80078 84.191406 C 146.70649 85.282706 149.14477 85.3753 149.81445 84.34375 C 150.08143 83.93252 150.85692 82.24502 151.53711 80.59375 C 152.48163 78.30076 153.09337 77.574984 154.12695 77.521484 C 156.21296 77.413594 156.93018 76.395019 156.14062 74.662109 C 155.6142 73.506759 155.70183 72.588432 156.55859 70.294922 C 157.15515 68.697942 157.82595 66.378125 158.04883 65.140625 C 158.63794 61.869845 156.94797 62.145097 155.27344 65.591797 C 154.55197 67.076797 153.78274 68.291016 153.56445 68.291016 C 153.16848 68.291016 151.1941 62.339596 150.08203 57.791016 C 148.00184 49.282566 147.74468 33.976161 149.59375 28.738281 C 150.26487 26.837169 150.35995 25.762414 149.92578 24.951172 C 149.56065 24.268911 149.11547 23.961278 148.61719 24.011719 z M 216.19141 36.693359 C 215.57643 36.618911 214.94889 37.035166 213.42578 38.119141 C 207.55845 42.294817 193.72562 50.622789 189 52.824219 C 177.81338 58.035509 174.10682 59.907349 169.63672 62.599609 C 167.07151 64.144599 164.57323 65.255349 164.08594 65.068359 C 161.43683 64.051799 160.42749 67.025909 162.87695 68.630859 C 164.79439 69.887209 167.49175 69.066237 172.44336 65.716797 C 177.11487 62.556817 188.03255 57.434613 190.60742 57.195312 C 191.7294 57.091033 193.24313 56.578991 193.97266 56.056641 C 199.95245 51.775005 211.65443 44.291016 212.36914 44.291016 C 212.66934 44.291016 213.22204 45.844687 213.59766 47.742188 C 213.97327 49.639688 215.74823 55.800274 217.54102 61.433594 C 221.24892 73.084664 221.58342 76.151375 219.31055 77.640625 C 216.84947 79.253185 212.83646 77.905323 207.54688 73.689453 C 205.11565 71.751723 203.02194 70.269074 202.89453 70.396484 C 202.76712 70.523894 203.22964 71.802298 203.92383 73.236328 C 205.53631 76.567248 208.75155 79.679047 211.97266 81.029297 C 217.55268 83.368387 224.44517 81.338384 225.23633 77.121094 C 225.79175 74.160454 225.20242 71.703796 220.00781 55.347656 C 217.43644 47.25125 216.81438 42.630894 218.07422 40.964844 C 219.3437 39.286056 219.20837 38.455039 217.47656 37.320312 C 216.92531 36.959118 216.56039 36.738028 216.19141 36.693359 z M 96.40625 97.228516 C 96.533905 97.255766 96.599609 97.455023 96.599609 97.830078 C 96.599609 99.448058 94.777811 105.58302 93.650391 107.75977 C 93.014641 108.9872 92.076746 110.53141 91.566406 111.19141 C 90.638476 112.39141 90.638747 112.39141 90.623047 111.19141 C 90.597397 109.23551 91.803022 105.44417 93.726562 101.4375 C 95.086433 98.604951 96.023285 97.146763 96.40625 97.228516 z M 42.396484 98.966797 C 43.569045 98.911195 43.916374 99.188485 44.378906 100.05273 C 45.267794 101.71362 44.73827 104.2193 42.564453 108.63281 C 40.440741 112.94457 37.871032 116.7734 34.003906 121.39062 C 29.94937 126.23141 30.008613 126.16855 29.945312 125.86133 C 29.914718 125.71283 29.404847 121.13641 28.814453 115.69141 L 27.742188 105.79102 L 29.255859 104.50195 C 31.720731 102.40134 37.941266 99.530517 40.914062 99.123047 C 41.522858 99.039602 42.005631 98.985331 42.396484 98.966797 z M 53.490234 121.02539 C 55.436834 121.03116 56.730581 121.60641 56.908203 122.86523 C 57.282823 125.52021 55.817611 128.79027 52.267578 133.22656 C 48.072198 138.46931 44.714195 141.64896 39.896484 144.9375 C 37.916868 146.28877 35.586566 147.57125 34.71875 147.78906 C 33.17414 148.17673 33.118891 148.08662 32.082031 143.48828 C 31.499485 140.90477 30.85031 136.96969 30.638672 134.74219 C 30.28571 131.02724 30.348035 130.69141 31.394531 130.69141 C 32.022011 130.69141 34.127276 129.49528 36.072266 128.0332 C 41.763049 123.75536 49.207716 121.01271 53.490234 121.02539 z "
     id="path3381" />
</svg>
